# xmcd CD database file
#
# Track frame offsets:
#	150
#	19568
#	50458
#	88092
#	126656
#	158921
#	195393
#	224449
#	254631
#	307310
#
# Disc length: 4299 seconds
#
# Revision: 0
# Processed by: cddbd v1.5PL3 Copyright (c) Steve Scherf et al.
# Submitted via: CDex 1.51
#
DISCID=9410c90a
DTITLE=Florian Ross - Blinds and Shades
DYEAR=2004
DGENRE=Jazz
TTITLE0=Soundcheck
TTITLE1=toss and turn
TTITLE2=ev'ry now and then (pause and think again)
TTITLE3=Getting there is half the fun
TTITLE4=grande tristesse
TTITLE5=farewell
TTITLE6=bookend
TTITLE7=julia
TTITLE8=bye bye blackbird
TTITLE9=goodbye
EXTD=YEAR: 2004
EXTT0=
EXTT1=
EXTT2=
EXTT3=
EXTT4=
EXTT5=
EXTT6=
EXTT7=
EXTT8=
EXTT9=
PLAYORDER=
